PathFileType	4	(X/Y/Z)	c:/Users/goper/Files/vsCode/490R/osim_files/C05/C05_Slow_02.trc
DataRate	CameraRate	NumFrames	NumMarkers	Units                	OrigDataRate	OrigDataStartFrame	OrigNumFrames
250.00	250.00	9	36	mm	250.0	1881	3009
                Frame#	Time	LPSIS			LASIS			LTH1			LTH2			LTH3			LTH4			LLFE			LMFE			LSH1			LSH2			LSH3			LSH4			LLMAL			LMMAL			LCAL			LMTP5			LTOE			LMTP1			RPSIS			RASIS			RTH1			RTH2			RTH3			RTH4			RLFE			RMFE			RSH1			RSH2			RSH3			RSH4			RLMAL			RMMAL			RCAL			RMTP1			RTOE			RMTP5		
		X1	Y1	Z1	X2	Y2	Z2	X3	Y3	Z3	X4	Y4	Z4	X5	Y5	Z5	X6	Y6	Z6	X7	Y7	Z7	X8	Y8	Z8	X9	Y9	Z9	X10	Y10	Z10	X11	Y11	Z11	X12	Y12	Z12	X13	Y13	Z13	X14	Y14	Z14	X15	Y15	Z15	X16	Y16	Z16	X17	Y17	Z17	X18	Y18	Z18	X19	Y19	Z19	X20	Y20	Z20	X21	Y21	Z21	X22	Y22	Z22	X23	Y23	Z23	X24	Y24	Z24	X25	Y25	Z25	X26	Y26	Z26	X27	Y27	Z27	X28	Y28	Z28	X29	Y29	Z29	X30	Y30	Z30	X31	Y31	Z31	X32	Y32	Z32	X33	Y33	Z33	X34	Y34	Z34	X35	Y35	Z35	X36	Y36	Z36

1881	7.52000	-1356.34351	1054.52783	280.14899	-1558.60364	1022.16772	332.22577	-1523.29370	709.41290	367.56650	-1521.46924	648.44727	356.85413	-1447.08899	704.84796	372.99332	-1455.54663	643.03357	361.78687	-1491.98621	539.68048	335.75345	-1481.89697	535.99933	219.21472	-1382.49182	369.75104	337.45392	-1382.01880	325.71835	329.65070	-1445.53882	361.40201	345.11734	-1435.03638	319.90997	336.05783	-1380.17310	102.93236	286.88077	-1407.20825	116.22977	204.99966	-1319.95984	75.79424	235.36427	-1518.09265	43.59386	315.91455	-1556.50012	66.56409	254.90776	-1543.17212	54.21775	205.52014	-1354.31628	1055.31079	170.96758	-1542.31885	1024.84277	102.58972	-1625.83215	718.94727	42.33015	-1653.21960	663.89227	52.13678	-1561.35107	681.05121	44.61405	-1597.54260	631.11304	56.11302	0.00000	0.00000	0.00000	-1670.43005	566.13348	68.94284	-1549.32129	449.10059	51.45111	-1534.22705	403.17218	53.63529	-1604.09631	421.93521	51.57307	-1582.16858	381.03076	54.28370	-1452.05994	180.58704	79.85792	-1481.61975	176.75780	163.51768	-1383.59497	170.22270	132.94063	-1574.75562	66.40411	143.22388	-1597.98621	85.91395	94.29597	-1538.37549	73.80270	35.65261
1882	7.52400	-1359.81311	1054.43811	279.91562	-1562.05188	1022.02161	332.26770	-1525.60156	709.25623	367.39938	-1523.53723	648.29822	356.78018	-1449.40906	704.88556	372.85052	-1457.58740	643.32697	361.69012	-1493.47498	539.59265	335.80649	-1483.17920	535.86078	219.31505	-1383.37854	369.94812	337.41196	-1383.00830	325.79709	329.42963	-1446.51831	361.41080	345.06717	-1435.87756	319.96429	336.00729	-1380.32471	103.03455	286.82376	-1407.37646	116.29778	204.94786	-1320.27637	75.80305	235.33209	-1518.14734	43.54922	315.92896	-1556.65625	66.43515	254.91159	-1543.26892	54.10296	205.43997	-1357.94409	1055.30408	170.73351	-1545.99976	1024.90906	102.62806	-1630.77539	719.82239	42.35648	-1658.26050	664.87225	52.24539	-1566.29736	681.66858	44.17868	-1602.75708	631.84143	55.89857	0.00000	0.00000	0.00000	-1675.85010	567.20532	69.06462	-1556.42419	447.73151	51.23158	-1542.80469	401.26083	53.44277	-1611.98047	421.59427	51.31181	-1590.89697	380.24438	54.10321	-1465.17529	177.06854	79.47838	-1494.75757	173.65945	163.14250	-1397.50549	164.79968	132.51877	-1590.41724	65.48929	142.55177	-1613.09326	85.60070	93.65503	-1553.74707	72.27575	35.05939
1883	7.52800	-1363.21460	1054.43628	279.61292	-1565.49121	1021.86444	332.38898	-1527.81592	709.11987	367.24857	-1525.50195	648.08160	356.61136	-1451.56006	704.97412	372.86395	-1459.61816	643.36371	361.62698	-1495.07349	539.48517	335.76358	-1484.66724	535.72577	219.21167	-1384.33350	370.07657	337.40317	-1383.76123	325.95001	329.33609	-1447.35254	361.46512	345.07141	-1436.53516	320.02762	335.98453	-1380.43958	103.13106	286.75378	-1407.60107	116.32573	204.87459	-1320.33545	75.98923	235.25612	-1518.16394	43.48285	315.92294	-1556.72864	66.31622	254.89940	-1543.32800	53.95397	205.34917	-1361.63745	1055.27100	170.50635	-1549.67163	1024.97437	102.66528	-1635.49268	720.58997	42.24372	-1663.31189	665.78473	52.40797	-1571.15137	682.22266	43.78643	-1607.82666	632.50586	55.58977	0.00000	0.00000	0.00000	-1681.09424	568.17047	69.08644	-1563.79248	446.12137	50.87720	-1551.12122	399.40973	53.12208	-1619.77966	421.33881	51.12596	-1599.62341	379.37839	53.85017	-1478.37256	173.53891	79.14449	-1508.08728	170.59830	162.80981	-1410.55481	159.83252	132.30766	-1606.18433	64.66817	141.90675	-1628.29810	85.38521	93.01412	-1569.20679	70.88648	34.46426
1884	7.53200	-1366.69409	1054.35059	279.35690	-1568.84424	1021.67236	332.44943	-1530.02795	708.91705	367.01154	-1527.45544	647.90295	356.39929	-1453.70764	705.08319	372.82413	-1461.66455	643.40533	361.64056	-1496.58496	539.32947	335.73163	-1485.73352	535.62097	219.03583	-1385.13843	370.24603	337.33005	-1384.34888	326.18188	329.36972	-1448.18176	361.48135	345.08658	-1437.30945	320.02936	335.94324	-1380.55151	103.23908	286.68393	-1407.78088	116.37215	204.80544	-1320.38611	76.13454	235.19376	-1518.14868	43.46336	315.92151	-1556.78088	66.16159	254.86661	-1543.39111	53.81845	205.28668	-1365.12634	1055.22815	170.26041	-1553.36719	1025.06970	102.68211	-1640.24426	721.36096	42.34467	-1668.10168	666.61646	52.51403	-1575.71545	682.77197	43.30178	-1612.71875	633.13391	55.36410	0.00000	0.00000	0.00000	-1686.32837	569.02435	69.14630	-1571.15503	444.39795	50.69653	-1559.40552	397.52939	52.89376	-1627.56311	420.89401	50.97351	-1608.24011	378.60992	53.50419	-1491.77917	169.90936	78.84657	-1521.43250	167.63988	162.41142	-1424.14905	154.66812	131.95728	-1621.89417	63.87385	141.32266	-1643.37427	85.25568	92.40645	-1584.79578	69.52940	33.90170
1885	7.53600	-1370.27856	1054.15906	279.10013	-1572.26221	1021.48413	332.48425	-1532.25085	708.73566	366.81601	-1529.43665	647.69287	356.21790	-1456.02991	705.00531	372.70868	-1463.64734	643.41113	361.51538	-1497.98486	539.21106	335.78470	-1486.93469	535.57745	219.03442	-1386.07959	370.43863	337.26672	-1385.09741	326.36719	329.27899	-1449.12842	361.47681	345.05597	-1438.15662	320.08099	335.92496	-1380.70483	103.35773	286.60352	-1407.63232	116.48755	204.60614	-1320.48877	76.29987	235.10945	-1518.13257	43.39779	315.94437	-1556.86633	66.04213	254.86844	-1543.45789	53.69561	205.24916	-1368.90625	1055.10681	169.97794	-1557.00952	1025.10645	102.70272	-1644.84497	721.94476	42.33081	-1672.86694	667.29700	52.52277	-1580.36047	683.13361	42.94342	-1617.59497	633.64764	55.08216	0.00000	0.00000	0.00000	-1691.84900	569.77094	69.63363	-1578.26172	442.74738	50.44721	-1567.70544	395.53540	52.69156	-1635.30212	420.42789	50.71889	-1617.01331	377.81223	53.45488	-1505.03491	166.52165	78.54988	-1535.42358	164.39439	162.47874	-1437.89343	149.57706	131.62708	-1637.61304	63.27587	140.70720	-1658.92346	85.20023	92.12746	-1600.13525	68.30779	33.22168
1886	7.54000	-1373.80176	1054.01282	278.81418	-1575.65881	1021.26556	332.48318	-1534.47998	708.61493	366.59518	-1531.47534	647.51544	355.99954	-1458.31482	705.05219	372.64731	-1465.62195	643.14795	361.48068	-1499.51965	539.09283	335.73682	-1488.40515	535.44385	219.06525	-1387.01880	370.54919	337.23471	-1386.09888	326.51672	329.09357	-1449.88745	361.38300	345.01627	-1438.89539	320.10626	335.90668	-1380.92407	103.48239	286.51425	-1408.10291	116.45485	204.61913	-1320.56067	76.47658	235.07611	-1518.16309	43.38583	315.90765	-1557.19885	66.03564	254.92317	-1543.52820	53.58464	205.23326	-1372.57361	1055.05603	169.73236	-1560.80420	1025.19470	102.73933	-1649.24158	722.44220	42.28403	-1677.49915	667.90454	52.61523	-1585.08398	683.44989	42.61019	-1622.13684	634.16071	54.81500	0.00000	0.00000	0.00000	-1696.44958	570.51959	69.48490	-1585.44592	440.91336	50.25511	-1576.19275	393.37573	52.64921	-1642.94373	419.99872	50.50573	-1625.62610	376.94873	53.15912	-1518.60669	163.09540	78.23376	-1548.91821	161.63751	162.04234	-1451.82751	144.61255	131.36360	-1653.37329	62.80354	140.15732	-1674.06873	85.19736	91.34636	-1615.85254	67.24000	33.00831
1887	7.54400	-1377.28674	1053.97644	278.52832	-1579.21143	1021.06036	332.48624	-1536.88123	708.43439	366.33255	-1533.66394	647.39697	355.79626	-1460.69177	704.98157	372.81146	-1467.75720	643.44928	361.43915	-1501.09338	538.93481	335.69315	-1489.94519	535.30530	218.96309	-1387.91638	370.75232	337.20117	-1386.83044	326.92749	329.41199	-1451.33838	361.35703	345.29880	-1439.64868	320.14502	335.88931	-1381.17395	103.66340	286.43842	-1408.33862	116.51526	204.54465	-1320.70386	76.65606	235.03761	-1518.33508	43.32047	315.92358	-1557.37976	65.76221	254.68980	-1543.60156	53.48471	205.23560	-1376.22095	1054.92773	169.47830	-1564.47815	1025.21399	102.66647	-1653.59619	722.90857	42.27754	-1681.97290	668.48633	52.66062	-1589.54700	683.70288	42.33401	-1626.86084	634.42157	54.64098	0.00000	0.00000	0.00000	-1701.14124	571.14966	69.41309	-1592.66504	439.08105	50.05923	-1584.25183	391.49509	52.33196	-1650.48511	419.48666	50.32963	-1634.34277	375.90854	53.02213	-1532.06592	159.80086	77.90103	-1562.45227	158.86847	161.68019	-1465.79504	139.66306	131.08447	-1669.27869	62.47042	139.67638	-1689.38550	85.46252	90.85703	-1631.79773	66.22367	32.44580
1888	7.54800	-1380.93665	1053.84204	278.27216	-1582.65137	1020.86920	332.48981	-1539.18115	708.30524	366.14893	-1535.78552	647.26556	355.59723	-1463.13782	704.97900	372.88757	-1469.90466	643.42792	361.40289	-1502.57178	538.85797	335.71509	-1491.13403	535.28400	218.97781	-1388.87256	370.90768	337.18900	-1387.64783	327.16437	329.29691	-1452.19458	361.38336	345.29727	-1440.54736	320.24161	335.84714	-1381.35925	103.83373	286.38168	-1408.53699	116.60983	204.46704	-1320.80811	76.85270	234.98978	-1518.30994	43.25928	315.89807	-1557.48315	65.64864	254.69431	-1543.67737	53.39503	205.25276	-1379.99097	1054.77991	169.21477	-1568.25134	1024.82898	102.60900	-1657.93640	723.26562	42.18088	-1686.37463	668.90857	52.67336	-1593.87817	683.85785	42.01398	-1631.27258	634.68628	54.53506	0.00000	0.00000	0.00000	-1705.66187	571.72272	69.41866	-1600.00427	437.06573	50.09442	-1592.36560	389.48239	52.06281	-1657.99658	418.96457	50.11932	-1642.80627	375.10840	52.80193	-1545.80591	156.52238	77.61682	-1576.17908	156.18916	161.41066	-1480.04932	134.83389	130.79706	-1685.20471	62.34042	139.22060	-1704.73718	85.72703	90.46486	-1647.53516	65.28030	32.02231
1889	7.55200	-1384.40063	1053.75916	278.00696	-1586.03882	1020.61023	332.52274	-1541.31079	708.08350	365.89230	-1537.81360	647.04443	355.37082	-1465.20007	705.13477	372.62897	-1471.86938	643.44440	361.33765	-1504.08606	538.73779	335.68283	-1492.57190	535.13843	219.05266	-1389.76428	371.11548	337.22604	-1388.53845	327.21713	328.87762	-1452.97302	361.42822	345.30325	-1441.24792	320.28110	335.86053	-1381.51733	104.01324	286.33743	-1408.76941	116.69987	204.42105	-1320.89124	77.09404	234.94382	-1518.34290	43.25303	315.86578	-1557.58582	65.55647	254.70583	-1543.75562	53.31477	205.28148	-1383.71021	1054.71802	168.95030	-1572.05750	1024.71301	102.56034	-1662.04407	723.47308	42.11898	-1690.66638	669.23444	52.69021	-1598.06506	683.98431	41.75947	-1635.62305	634.88971	54.39420	0.00000	0.00000	0.00000	-1710.10205	572.17377	69.43879	-1606.95410	435.22778	49.82945	-1600.46741	387.46530	51.84810	-1665.49744	418.46719	49.94151	-1651.15112	374.25858	52.60381	-1559.50574	153.36221	77.32995	-1589.95483	153.67995	161.11916	-1494.26526	130.15080	130.52287	-1701.02283	62.20383	138.80286	-1720.03162	86.23292	89.99581	-1663.26404	64.54159	31.60061
